<svg width="24" height="24" viewBox="0 0 24 24" fill="none" xmlns="http://www.w3.org/2000/svg">
<path d="M4 9.59016H9C9 8.49016 8.1 7.59016 7 7.59016H4C3.45 7.59016 3 8.04016 3 8.59016C3 9.14016 3.45 9.59016 4 9.59016Z" fill="black"/>
<path d="M22 14.6502V8.59016C22 7.49016 21.1 6.59016 20 6.59016H13.71L12.65 5.53016L14.06 4.12016L13.35 3.41016L9.82 6.94016L10.53 7.65016L11.94 6.24016L13 7.30016V9.59016C13 10.6902 12.1 11.5902 11 11.5902H8.96C8.74 11.4302 8.51 11.2902 8.27 11.1602L7.87 12.0502L7.41 11.8402L7.81 10.9402C7.26 10.7202 6.64 10.5902 6 10.5902C5.47 10.5902 4.96 10.7002 4.48 10.8502L4.82 11.7602L4.35 11.9402L4 11.0102C2.94 11.4702 2.09 12.2902 1.57 13.3202L2.46 13.7202L2.25 14.1802L1.35 13.7802C1.13 14.3302 1 14.9502 1 15.5902C1 16.1202 1.11 16.6302 1.26 17.1102L2.17 16.7702L2.35 17.2402L1.42 17.5902C1.88 18.6502 2.7 19.5002 3.73 20.0202L4.13 19.1302L4.59 19.3402L4.19 20.2402C4.74 20.4602 5.36 20.5902 6 20.5902C6.53 20.5902 7.04 20.4802 7.52 20.3302L7.18 19.4202L7.65 19.2402L8 20.1702C9.06 19.7102 9.91 18.8902 10.43 17.8602L9.54 17.4602L9.75 17.0002L10.65 17.4002C10.75 17.1402 10.83 16.8602 10.89 16.5802H16.05C16.03 16.7502 16 16.9202 16 17.0902C16 19.0202 17.57 20.5902 19.5 20.5902C21.43 20.5902 23 19.0202 23 17.0902C23 16.1402 22.62 15.2802 22 14.6502ZM6 18.5902C4.34 18.5902 3 17.2502 3 15.5902C3 13.9302 4.34 12.5902 6 12.5902C7.66 12.5902 9 13.9302 9 15.5902C9 17.2502 7.66 18.5902 6 18.5902ZM10.87 14.5902C10.83 14.4102 10.79 14.2402 10.74 14.0702L9.83 14.4102L9.65 13.9402L10.58 13.5902H11C13.21 13.5902 15 11.8002 15 9.59016V8.59016H20V13.6402C19.84 13.6202 19.67 13.5902 19.5 13.5902C18.55 13.5902 17.69 13.9702 17.06 14.5902H10.87ZM19.5 18.5902C18.67 18.5902 18 17.9202 18 17.0902C18 16.2602 18.67 15.5902 19.5 15.5902C20.33 15.5902 21 16.2602 21 17.0902C21 17.9202 20.33 18.5902 19.5 18.5902Z" fill="black"/>
</svg>
