<svg width="24" height="24" viewBox="0 0 24 24" fill="none" xmlns="http://www.w3.org/2000/svg">
<path d="M20.495 10.94C20.625 10.62 20.595 10.71 20.645 10.55C20.945 9.34 20.305 8.08 19.145 7.62L17.135 6.82C16.675 6.64 16.185 6.61 15.725 6.7C15.615 6.37 15.435 6.07 15.205 5.81C14.725 5.29 14.055 5 13.355 5H10.645C9.93499 5 9.265 5.29 8.795 5.81C8.555 6.07 8.375 6.37 8.265 6.69C7.805 6.6 7.315 6.63 6.855 6.81L4.845 7.61C3.685 8.07 3.045 9.33 3.345 10.54L3.495 10.92C1.095 15.55 0.994995 15.55 0.994995 16.38C0.994995 17.29 1.455 18.12 2.235 18.6C3.65499 19.48 4.72499 18.74 6.23499 17.99H17.765C19.285 18.75 19.625 19 20.395 19C21.395 19 23.005 18.23 23.005 16.39C22.995 15.54 22.875 15.51 20.495 10.94ZM20.115 16.93L18.435 16.09L19.515 13.39L20.925 16.1C21.205 16.63 20.635 17.19 20.115 16.93ZM15.085 15.99L15.705 9.09C15.735 8.76 16.075 8.55 16.385 8.67L18.395 9.47C18.615 9.56 18.735 9.78 18.705 10.01L16.305 15.99H15.085ZM7.67499 15.99L5.275 10.01C5.245 9.78 5.365 9.56 5.585 9.47L7.595 8.67C7.90499 8.55 8.24499 8.75 8.27499 9.09L8.89499 15.99H7.67499ZM3.065 16.1L4.475 13.38L5.555 16.09L3.875 16.93C3.355 17.19 2.785 16.63 3.065 16.1ZM10.145 7.54C10.115 7.23 10.375 7 10.645 7H13.355C13.625 7 13.885 7.23 13.855 7.54L13.085 15.99H10.915L10.145 7.54Z" fill="black"/>
</svg>
