<svg width="24" height="24" viewBox="0 0 24 24" fill="none" xmlns="http://www.w3.org/2000/svg">
<path d="M22.6559 18.9895L13.5759 9.90948C14.5059 7.56948 14.0259 4.80948 12.1359 2.90948C9.83586 0.609483 6.25586 0.399483 3.70586 2.25948L7.54586 6.10948L6.12586 7.51948L2.29586 3.68948C0.43586 6.22948 0.64586 9.81948 2.94586 12.1095C4.80586 13.9695 7.51586 14.4595 9.83586 13.5895L18.9459 22.6995C19.3359 23.0895 19.9659 23.0895 20.3559 22.6995L22.6559 20.3995C23.0559 20.0195 23.0559 19.3895 22.6559 18.9895ZM19.6559 20.5895L10.1959 11.1295C9.58586 11.5795 8.90586 11.8495 8.19586 11.9495C6.83586 12.1495 5.40586 11.7395 4.36586 10.6995C3.41586 9.75948 2.97586 8.49948 3.04586 7.25948L6.13586 10.3495L10.3759 6.10948L7.28586 3.01948C8.52586 2.94948 9.77586 3.38948 10.7259 4.32948C11.8059 5.40948 12.2159 6.89948 11.9659 8.28948C11.8459 8.99948 11.5459 9.65948 11.0859 10.2495L20.5359 19.6995L19.6559 20.5895Z" fill="black"/>
</svg>
