<svg width="24" height="24" viewBox="0 0 24 24" fill="none" xmlns="http://www.w3.org/2000/svg">
<path d="M9.5 11.9951C9.5 12.5451 9.05 12.9951 8.5 12.9951C7.95 12.9951 7.5 12.5451 7.5 11.9951C7.5 11.4451 7.95 10.9951 8.5 10.9951C9.05 10.9951 9.5 11.4451 9.5 11.9951ZM13.75 9.99512C14.3 9.99512 14.75 9.54512 14.75 8.99512C14.75 8.44512 14.3 7.99512 13.75 7.99512C13.2 7.99512 12.75 8.44512 12.75 8.99512C12.75 9.54512 13.2 9.99512 13.75 9.99512ZM10.25 9.99512C10.8 9.99512 11.25 9.54512 11.25 8.99512C11.25 8.44512 10.8 7.99512 10.25 7.99512C9.7 7.99512 9.25 8.44512 9.25 8.99512C9.25 9.54512 9.7 9.99512 10.25 9.99512ZM10.25 13.9951C9.7 13.9951 9.25 14.4451 9.25 14.9951C9.25 15.5451 9.7 15.9951 10.25 15.9951C10.8 15.9951 11.25 15.5451 11.25 14.9951C11.25 14.4451 10.8 13.9951 10.25 13.9951ZM22 11.2451V12.7451C22 13.1551 21.66 13.4951 21.25 13.4951C20.84 13.4951 20.5 13.1551 20.5 12.7451H18.96C18.81 14.1151 18.27 15.3751 17.44 16.3951L18.53 17.4851L18.54 17.4751C18.83 17.1851 19.31 17.1851 19.6 17.4751C19.89 17.7651 19.89 18.2451 19.6 18.5351L18.54 19.5951C18.25 19.8851 17.77 19.8851 17.48 19.5951C17.19 19.3051 17.19 18.8351 17.47 18.5451L16.38 17.4551C15.36 18.2751 14.11 18.8151 12.74 18.9651V20.5051H12.75C13.16 20.5051 13.5 20.8451 13.5 21.2551C13.5 21.6651 13.16 22.0051 12.75 22.0051H11.25C10.84 22.0051 10.5 21.6651 10.5 21.2551C10.5 20.8451 10.83 20.5151 11.24 20.5051V18.9551C9.87 18.8051 8.62 18.2651 7.61 17.4451L6.52 18.5351L6.53 18.5451C6.82 18.8351 6.82 19.3151 6.53 19.6051C6.24 19.8951 5.76 19.8951 5.47 19.6051L4.4 18.5351C4.11 18.2451 4.11 17.7651 4.4 17.4751C4.69 17.1851 5.16 17.1851 5.45 17.4651L6.54 16.3751C5.72 15.3551 5.18 14.1151 5.04 12.7451H3.5C3.5 13.1551 3.16 13.4951 2.75 13.4951C2.34 13.4951 2 13.1551 2 12.7451V11.2451C2 10.8351 2.34 10.4951 2.75 10.4951C3.16 10.4951 3.5 10.8351 3.5 11.2451H5.04C5.19 9.87512 5.73 8.63512 6.54 7.61512L5.45 6.52512C5.16 6.80512 4.69 6.80512 4.4 6.51512C4.11 6.22512 4.11 5.74512 4.4 5.45512L5.46 4.39512C5.75 4.10512 6.23 4.10512 6.52 4.39512C6.81 4.68512 6.81 5.16512 6.52 5.45512L6.51 5.46512L7.6 6.55512C8.62 5.73512 9.86 5.19512 11.23 5.04512V3.49512C10.82 3.48512 10.49 3.15512 10.49 2.74512C10.5 2.33512 10.84 1.99512 11.25 1.99512H12.75C13.16 1.99512 13.5 2.33512 13.5 2.74512C13.5 3.15512 13.16 3.49512 12.75 3.49512H12.74V5.03512C14.11 5.17512 15.36 5.72512 16.38 6.54512L17.47 5.45512C17.18 5.16512 17.19 4.69512 17.48 4.40512C17.77 4.11512 18.25 4.11512 18.54 4.40512L19.6 5.46512C19.89 5.75512 19.89 6.23512 19.6 6.52512C19.31 6.81512 18.83 6.81512 18.54 6.52512L18.53 6.51512L17.44 7.59512C18.26 8.61512 18.81 9.86512 18.96 11.2451H20.5C20.5 10.8351 20.84 10.4951 21.25 10.4951C21.66 10.4951 22 10.8351 22 11.2451ZM17 11.9951C17 9.23512 14.76 6.99512 12 6.99512C9.24 6.99512 7 9.23512 7 11.9951C7 14.7551 9.24 16.9951 12 16.9951C14.76 16.9951 17 14.7551 17 11.9951ZM12 10.9951C11.45 10.9951 11 11.4451 11 11.9951C11 12.5451 11.45 12.9951 12 12.9951C12.55 12.9951 13 12.5451 13 11.9951C13 11.4451 12.55 10.9951 12 10.9951ZM15.5 10.9951C14.95 10.9951 14.5 11.4451 14.5 11.9951C14.5 12.5451 14.95 12.9951 15.5 12.9951C16.05 12.9951 16.5 12.5451 16.5 11.9951C16.5 11.4451 16.05 10.9951 15.5 10.9951ZM13.75 13.9951C13.2 13.9951 12.75 14.4451 12.75 14.9951C12.75 15.5451 13.2 15.9951 13.75 15.9951C14.3 15.9951 14.75 15.5451 14.75 14.9951C14.75 14.4451 14.3 13.9951 13.75 13.9951Z" fill="black"/>
</svg>
