<svg width="24" height="24" viewBox="0 0 24 24" fill="none" xmlns="http://www.w3.org/2000/svg">
<path d="M20.8388 7.40164C21.2288 7.01164 21.2288 6.38164 20.8388 5.99164L18.0088 3.16164C17.6188 2.77164 16.9888 2.77164 16.5988 3.16164L12.1088 7.65164L8.21877 3.76164C7.43878 2.98164 6.16877 2.98164 5.38877 3.76164L3.48877 5.66164C2.70877 6.44164 2.70877 7.71164 3.48877 8.49164L7.37877 12.3816L2.86877 16.8916V21.1316H7.10877L11.6288 16.6116L15.5188 20.5016C16.4688 21.4516 17.7488 21.1016 18.3488 20.5016L20.2488 18.6016C21.0288 17.8216 21.0288 16.5516 20.2488 15.7716L16.3588 11.8816L20.8388 7.40164ZM4.90877 7.07164L6.79877 5.17164L8.06877 6.44164L6.88877 7.63164L8.29877 9.04164L9.48877 7.85164L10.6888 9.05164L8.78877 10.9516L4.90877 7.07164ZM16.1388 14.5116L14.9488 15.7016L16.3588 17.1116L17.5488 15.9216L18.8188 17.1916L16.9188 19.0916L13.0288 15.2016L14.9288 13.3016L16.1388 14.5116ZM6.27877 19.1316H4.86877V17.7216L14.4788 8.11164L15.8888 9.52164L6.27877 19.1316ZM15.8888 6.69164L17.2988 5.28164L18.7088 6.69164L17.2988 8.10164L15.8888 6.69164Z" fill="black"/>
</svg>
