<svg width="24" height="24" viewBox="0 0 24 24" fill="none" xmlns="http://www.w3.org/2000/svg">
<path d="M13.0011 3V4H11.0011V3H13.0011ZM12.0011 10.11L17.3811 11.88L19.7711 12.66L18.6511 16.63C18.1111 16.33 17.7111 15.92 17.5111 15.69L16.0011 13.96L14.4911 15.68C14.1511 16.08 13.2111 17 12.0011 17C10.7911 17 9.85111 16.08 9.51111 15.68L8.00111 13.96L6.49111 15.68C6.29111 15.91 5.89111 16.31 5.35111 16.61L4.22111 12.65L6.62111 11.86L12.0011 10.11ZM15.0011 1H9.00111V4H6.00111C4.90111 4 4.00111 4.9 4.00111 6V10.62L2.71111 11.04C2.45111 11.12 2.23111 11.3 2.11111 11.54C1.99111 11.78 1.96111 12.06 2.05111 12.32L3.95111 19H4.00111C5.60111 19 7.02111 18.12 8.00111 17C8.98111 18.12 10.4011 19 12.0011 19C13.6011 19 15.0211 18.12 16.0011 17C16.9811 18.12 18.4011 19 20.0011 19H20.0511L21.9411 12.32C22.0211 12.06 22.0011 11.78 21.8811 11.54C21.7611 11.3 21.5411 11.12 21.2811 11.04L20.0011 10.62V6C20.0011 4.9 19.1011 4 18.0011 4H15.0011V1ZM6.00111 9.97V6H18.0011V9.97L12.0011 8L6.00111 9.97ZM16.0011 19.68C14.7811 20.53 13.3911 20.96 12.0011 20.96C10.6111 20.96 9.22111 20.53 8.00111 19.68C6.78111 20.53 5.39111 21 4.00111 21H2.00111V23H4.00111C5.38111 23 6.74111 22.65 8.00111 22.01C9.26111 22.65 10.6311 22.98 12.0011 22.98C13.3711 22.98 14.7411 22.66 16.0011 22.01C17.2611 22.66 18.6211 23 20.0011 23H22.0011V21H20.0011C18.6111 21 17.2211 20.53 16.0011 19.68Z" fill="black"/>
</svg>
