<svg width="24" height="24" viewBox="0 0 24 24" fill="none" xmlns="http://www.w3.org/2000/svg">
<path d="M18.51 15.3753L17.1 13.9653L21.58 9.48531L23 10.8953L18.51 15.3753ZM14.98 11.8453L18.05 8.77531L13.8 4.51531L10.72 7.58531L9.3 6.16531L13.8 1.69531L20.88 8.77531L16.4 13.2553L14.98 11.8453ZM21.18 20.8953L19.77 22.3053L13.83 16.3653L10.5 19.6953H1V17.0653C1 16.2253 1.52 15.4953 2.3 15.1853C2.88 14.9553 3.58 14.6253 4.27 14.1653L5.65 15.5453C5.74 15.6453 5.87 15.6953 6 15.6953C6.13 15.6953 6.26 15.6453 6.36 15.5453C6.56 15.3453 6.56 15.0353 6.36 14.8353L5.08 13.5553C5.35 13.3153 5.61 13.0453 5.85 12.7553L7.12 14.0253C7.21 14.1253 7.35 14.1753 7.47 14.1753C7.59 14.1753 7.72 14.1253 7.82 14.0253C8.02 13.8253 8.02 13.5153 7.82 13.3153L6.42 11.9153C6.61 11.5753 6.76 11.1953 6.87 10.7953L8.58 12.5153C8.67 12.6153 8.81 12.6653 8.93 12.6653C9.05 12.6653 9.18 12.6153 9.28 12.5153C9.47 12.3153 9.47 12.0153 9.29 11.8153L1.39 3.91531L2.81 2.50531L21.18 20.8953ZM12.42 14.9553L10.75 13.2753L7.42 16.5953C6.64 17.3753 5.37 17.3753 4.59 16.5853L4.4 16.4153L3.93 16.6553C3.64 16.7953 3.34 16.9253 3.04 17.0453L3.03 17.6953H9.67L12.42 14.9553Z" fill="black"/>
</svg>
