<svg width="24" height="24" viewBox="0 0 24 24" fill="none" xmlns="http://www.w3.org/2000/svg">
<path d="M14.77 8.30961L15.69 9.22961L14.58 10.3396L15.99 11.7496L18.51 9.22961L14.76 5.47961L12.24 7.99961L13.65 9.40961L14.77 8.30961ZM21.42 6.32961C21.81 5.93961 21.81 5.30961 21.42 4.91961L19.08 2.57961C18.88 2.37961 18.63 2.28961 18.37 2.28961C18.11 2.28961 17.86 2.38961 17.67 2.57961L15.84 4.40961L19.59 8.15961L21.42 6.32961ZM3.51998 2.09961L2.09998 3.50961L9.41998 10.8296L3.70998 16.5396V20.2896H7.45998L13.17 14.5796L20.49 21.8996L21.9 20.4896L3.51998 2.09961ZM6.62998 18.2896H5.70998V17.3696L10.84 12.2396L11.76 13.1596L6.62998 18.2896Z" fill="black"/>
</svg>
