<svg width="24" height="24" viewBox="0 0 24 24" fill="none" xmlns="http://www.w3.org/2000/svg">
<path d="M12.0017 2.5C11.5417 2.5 11.0717 2.54 10.6017 2.64C7.84166 3.17 5.64166 5.4 5.12166 8.16C4.64166 10.77 5.60166 13.17 7.34166 14.72C7.77166 15.1 8.00166 15.63 8.00166 16.19V18.5C8.00166 19.6 8.90166 20.5 10.0017 20.5H10.2817C10.6317 21.1 11.2617 21.5 12.0017 21.5C12.7417 21.5 13.3817 21.1 13.7217 20.5H14.0017C15.1017 20.5 16.0017 19.6 16.0017 18.5V16.19C16.0017 15.64 16.2217 15.1 16.6417 14.73C18.0917 13.45 19.0017 11.58 19.0017 9.5C19.0017 5.63 15.8717 2.5 12.0017 2.5ZM14.0017 16.5H10.0017V15.5H14.0017V16.5ZM10.0017 18.5V17.5H14.0017V18.5H10.0017ZM15.3117 13.24C15.2217 13.32 15.1517 13.42 15.0717 13.5H8.92166C8.84166 13.41 8.77166 13.31 8.68166 13.23C7.36166 12.05 6.77166 10.29 7.09166 8.53C7.45166 6.59 9.05166 4.98 10.9817 4.6C11.3217 4.53 11.6617 4.5 12.0017 4.5C14.7617 4.5 17.0017 6.74 17.0017 9.5C17.0017 10.93 16.3917 12.29 15.3117 13.24Z" fill="black"/>
<path d="M12.5017 10.5H11.5017V13.5H12.5017V10.5Z" fill="black"/>
<path d="M10.3812 8.37372L9.67406 9.08082L11.7954 11.2021L12.5025 10.495L10.3812 8.37372Z" fill="black"/>
<path d="M11.5027 10.5052L12.2098 11.2123L14.3311 9.09098L13.624 8.38388L11.5027 10.5052Z" fill="black"/>
</svg>
