<svg width="24" height="24" viewBox="0 0 24 24" fill="none" xmlns="http://www.w3.org/2000/svg">
<path d="M9.05501 14.1953C9.74536 14.1953 10.305 13.6357 10.305 12.9453C10.305 12.255 9.74536 11.6953 9.05501 11.6953C8.36465 11.6953 7.80501 12.255 7.80501 12.9453C7.80501 13.6357 8.36465 14.1953 9.05501 14.1953Z" fill="black"/>
<path d="M17.555 9.94531C18.305 9.94531 19.025 9.85531 19.725 9.70531C19.935 10.4153 20.055 11.1653 20.055 11.9453C20.055 13.1653 19.775 14.3153 19.285 15.3453L20.775 16.8353C21.585 15.3853 22.055 13.7253 22.055 11.9453C22.055 6.42531 17.575 1.94531 12.055 1.94531C10.275 1.94531 8.61501 2.41531 7.16501 3.22531L12.495 8.55531C13.985 9.43531 15.705 9.94531 17.555 9.94531ZM10.715 4.06531C11.145 3.99531 11.595 3.94531 12.055 3.94531C14.955 3.94531 17.495 5.50531 18.895 7.82531C18.465 7.89531 18.015 7.94531 17.555 7.94531C14.655 7.94531 12.115 6.38531 10.715 4.06531Z" fill="black"/>
<path d="M1.94501 3.66531L4.13501 5.85531C2.83501 7.54531 2.05501 9.65531 2.05501 11.9453C2.05501 17.4653 6.53501 21.9453 12.055 21.9453C14.345 21.9453 16.455 21.1653 18.145 19.8653L20.335 22.0553L21.745 20.6453L3.36501 2.25531L1.94501 3.66531ZM16.715 18.4353C15.405 19.3853 13.795 19.9453 12.055 19.9453C7.64501 19.9453 4.05501 16.3553 4.05501 11.9453C4.05501 11.8953 4.06501 11.8453 4.05501 11.8053C5.44501 11.2853 6.68501 10.4553 7.69501 9.41531L16.715 18.4353ZM6.28501 8.00531C5.75501 8.55531 5.14501 9.03531 4.47501 9.41531C4.73501 8.64531 5.10501 7.93531 5.56501 7.28531L6.28501 8.00531Z" fill="black"/>
</svg>
