<svg width="24" height="24" viewBox="0 0 24 24" fill="none" xmlns="http://www.w3.org/2000/svg">
<path d="M4.67 6.89977C5.37 6.18977 6.07 5.54977 6.38 5.67977C6.88 5.87977 6.38 6.70977 6.08 7.19977C5.83 7.61977 3.22 11.0898 3.22 13.5098C3.22 14.7898 3.7 15.8498 4.56 16.4898C5.31 17.0498 6.3 17.2198 7.2 16.9498C8.27 16.6398 9.15 15.5498 10.26 14.1798C11.47 12.6898 13.09 10.7398 14.34 10.7398C15.97 10.7398 15.99 11.7498 16.1 12.5298C12.32 13.1698 10.72 16.1998 10.72 17.8998C10.72 19.5998 12.16 20.9898 13.93 20.9898C15.56 20.9898 18.22 19.6598 18.62 14.8898H21.08V12.3898H18.61C18.46 10.7398 17.52 8.18977 14.58 8.18977C12.33 8.18977 10.4 10.0998 9.64 11.0298C9.06 11.7598 7.58 13.5098 7.35 13.7498C7.1 14.0498 6.67 14.5898 6.24 14.5898C5.79 14.5898 5.52 13.7598 5.88 12.6698C6.23 11.5798 7.28 9.80977 7.73 9.14977C8.51 8.00977 9.03 7.22977 9.03 5.86977C9.03 3.69977 7.39 3.00977 6.52 3.00977C5.2 3.00977 4.05 4.00977 3.8 4.25977C3.44 4.61977 3.14 4.91977 2.92 5.18977L4.67 6.89977ZM13.96 18.5598C13.65 18.5598 13.22 18.2998 13.22 17.8398C13.22 17.2398 13.95 15.6398 16.09 15.0798C15.79 17.7698 14.66 18.5598 13.96 18.5598Z" fill="black"/>
</svg>
