<svg width="24" height="24" viewBox="0 0 24 24" fill="none" xmlns="http://www.w3.org/2000/svg">
<path d="M15.155 7.29453C15.155 5.87453 14.655 4.56453 13.825 3.53453C14.245 3.39453 14.685 3.29453 15.155 3.29453C17.365 3.29453 19.155 5.08453 19.155 7.29453C19.155 9.50453 17.365 11.2945 15.155 11.2945C15.095 11.2945 15.035 11.2945 14.975 11.2945L14.205 10.5245C14.805 9.58453 15.155 8.47453 15.155 7.29453ZM22.985 19.2945H23.155V16.2945C23.155 14.1145 19.575 12.8245 16.815 12.4245C17.915 13.1745 18.765 14.1345 19.045 15.3645L22.985 19.2945ZM9.15497 5.29453C9.09497 5.29453 9.04497 5.29453 8.99497 5.30453L7.39497 3.70453C7.92497 3.44453 8.52497 3.29453 9.15497 3.29453C11.365 3.29453 13.155 5.08453 13.155 7.29453C13.155 7.92453 13.005 8.52453 12.745 9.05453L11.145 7.45453C11.155 7.40453 11.155 7.35453 11.155 7.29453C11.155 6.19453 10.255 5.29453 9.15497 5.29453ZM9.32497 11.2945C9.26497 11.2945 9.21497 11.2945 9.15497 11.2945C6.94497 11.2945 5.15497 9.50453 5.15497 7.29453C5.15497 7.23453 5.15497 7.18453 5.15497 7.12453L0.844971 2.80453L2.25497 1.39453L22.055 21.1945L20.645 22.6045L17.155 19.1245V19.2945H1.15497V16.2945C1.15497 13.6345 6.48497 12.2945 9.15497 12.2945C9.52497 12.2945 9.95497 12.3245 10.405 12.3745L9.32497 11.2945ZM9.15497 14.2945C6.45497 14.2945 3.35497 15.5845 3.15497 16.3045V17.2945H15.155V17.1245L13.045 15.0145C11.915 14.6045 10.485 14.2945 9.15497 14.2945Z" fill="black"/>
</svg>
