<svg width="24" height="24" viewBox="0 0 24 24" fill="none" xmlns="http://www.w3.org/2000/svg">
<path d="M13.93 3.06969H11.93C11.93 4.41969 11.62 5.69969 11.09 6.83969L12.58 8.32969C13.44 6.76969 13.93 4.97969 13.93 3.06969ZM20.93 12.0697V10.0697C19.02 10.0697 17.23 10.5597 15.66 11.4197L17.15 12.9097C18.3 12.3797 19.58 12.0697 20.93 12.0697ZM20.93 16.0697V14.0697C20.14 14.0697 19.39 14.1997 18.69 14.4397L20.37 16.1197C20.56 16.1097 20.74 16.0697 20.93 16.0697ZM9.92999 3.06969H7.92999C7.92999 3.25969 7.88999 3.43969 7.86999 3.62969L9.54999 5.30969C9.79999 4.60969 9.92999 3.84969 9.92999 3.06969ZM4.33999 2.92969L2.92999 4.33969L5.76999 7.17969C4.95999 7.73969 3.98999 8.06969 2.92999 8.06969V10.0697C4.53999 10.0697 6.01999 9.51969 7.19999 8.60969L8.62999 10.0397C7.06999 11.3097 5.08999 12.0697 2.92999 12.0697V14.0697C5.64999 14.0697 8.12999 13.0797 10.04 11.4497L12.55 13.9597C10.92 15.8797 9.92999 18.3597 9.92999 21.0697H11.93C11.93 18.9097 12.69 16.9297 13.96 15.3697L15.39 16.7997C14.48 17.9797 13.93 19.4597 13.93 21.0697H15.93C15.93 20.0097 16.26 19.0397 16.82 18.2297L19.66 21.0697L21.07 19.6597L4.33999 2.92969Z" fill="black"/>
</svg>
