<svg width="24" height="24" viewBox="0 0 24 24" fill="none" xmlns="http://www.w3.org/2000/svg">
<path d="M13.62 3C8.65 3 4.62 7.03 4.62 12C4.62 12.06 4.63001 12.12 4.63001 12.19L2.79 10.35L1.38 11.76L5.62 16L9.86 11.76L8.45 10.35L6.63 12.17C6.63 12.11 6.62 12.06 6.62 12C6.62 8.14 9.76 5 13.62 5C17.48 5 20.62 8.14 20.62 12C20.62 15.86 17.48 19 13.62 19C11.72 19 10 18.24 8.74 17.01L7.32 18.42C8.94 20.01 11.17 21 13.62 21C18.59 21 22.62 16.97 22.62 12C22.62 7.03 18.59 3 13.62 3ZM15.62 11V10C15.62 8.9 14.72 8 13.62 8C12.52 8 11.62 8.9 11.62 10V11C11.07 11 10.62 11.45 10.62 12V15C10.62 15.55 11.07 16 11.62 16H15.62C16.17 16 16.62 15.55 16.62 15V12C16.62 11.45 16.17 11 15.62 11ZM14.62 11H12.62V10C12.62 9.45 13.07 9 13.62 9C14.17 9 14.62 9.45 14.62 10V11Z" fill="black"/>
</svg>
