<svg width="24" height="24" viewBox="0 0 24 24" fill="none" xmlns="http://www.w3.org/2000/svg">
<path d="M9.37001 5.1302C9.61001 5.1302 9.83001 5.2002 10.01 5.3302L10.82 5.8902C10.53 6.1302 10.28 6.4302 10.1 6.7602L11.76 8.4202C11.74 8.3402 11.71 8.2802 11.71 8.2002C11.71 7.6502 12.16 7.2002 12.71 7.2002C13.26 7.2002 13.71 7.6502 13.71 8.2002C13.71 8.7502 13.26 9.2002 12.71 9.2002C12.63 9.2002 12.57 9.1702 12.49 9.1602L16.55 13.2202C18.04 12.9802 19.18 11.6902 19.18 10.1302C19.18 9.4202 18.93 8.7402 18.51 8.2002C18.94 7.6602 19.18 6.9802 19.18 6.2702C19.18 4.5402 17.77 3.1302 16.04 3.1302C15.89 3.1302 15.75 3.1402 15.61 3.1602C15.15 2.0102 14.02 1.2002 12.71 1.2002C11.4 1.2002 10.27 2.0102 9.80001 3.1602C9.66001 3.1402 9.51001 3.1302 9.37001 3.1302C8.57001 3.1302 7.84001 3.4402 7.28001 3.9402L8.70001 5.3602C8.90001 5.2302 9.12001 5.1302 9.37001 5.1302ZM16.05 11.2702C15.81 11.2702 15.59 11.2002 15.41 11.0702L14.6 10.5002C15.15 10.0502 15.54 9.4102 15.66 8.6702L16.54 9.0902C16.94 9.2802 17.2 9.6802 17.2 10.1202C17.2 10.7602 16.68 11.2702 16.05 11.2702ZM15.4 5.3302C15.6 5.2002 15.82 5.1302 16.05 5.1302C16.68 5.1302 17.19 5.6402 17.19 6.2702C17.19 6.7102 16.94 7.1002 16.53 7.3002L15.65 7.7202C15.53 6.9802 15.14 6.3402 14.58 5.8902L15.4 5.3302ZM12.71 3.2002C13.33 3.2002 13.83 3.6902 13.85 4.3002L13.74 5.3902C13.42 5.2702 13.07 5.2002 12.71 5.2002C12.35 5.2002 12.01 5.2702 11.69 5.3902L11.57 4.3002C11.59 3.6902 12.09 3.2002 12.71 3.2002Z" fill="black"/>
<path d="M20.69 17.3502C21.34 16.1102 21.71 14.7002 21.71 13.2002C20.21 13.2002 18.8 13.5702 17.56 14.2202L20.69 17.3502Z" fill="black"/>
<path d="M3.71001 13.2002C3.71001 18.1702 7.74001 22.2002 12.71 22.2002C12.71 17.2302 8.68001 13.2002 3.71001 13.2002ZM6.15001 15.6402C8.05001 16.3502 9.57001 17.8602 10.27 19.7602C8.37001 19.0502 6.86001 17.5402 6.15001 15.6402Z" fill="black"/>
<path d="M3.52001 3.0102L2.10001 4.4202L6.52001 8.8402C6.33001 9.2402 6.22001 9.6802 6.22001 10.1302C6.22001 11.8602 7.63001 13.2702 9.37001 13.2702C9.52001 13.2702 9.66001 13.2602 9.80001 13.2402C10.27 14.3902 11.4 15.2002 12.71 15.2002C12.76 15.2002 12.82 15.1902 12.87 15.1902L14.51 16.8302C13.38 18.3202 12.71 20.1802 12.71 22.2002C14.73 22.2002 16.59 21.5302 18.09 20.4002L20.49 22.8002L21.9 21.3902L3.52001 3.0102ZM15.15 19.7602C15.35 19.2202 15.62 18.7202 15.94 18.2602L16.66 18.9802C16.19 19.2902 15.69 19.5602 15.15 19.7602Z" fill="black"/>
</svg>
