<svg width="24" height="24" viewBox="0 0 24 24" fill="none" xmlns="http://www.w3.org/2000/svg">
<path d="M18.305 7.7002C17.245 7.7002 16.665 7.99019 14.395 8.89019C14.205 8.7502 13.995 8.62019 13.775 8.5202C14.025 7.4902 14.385 6.9902 15.105 6.4802C15.915 5.9102 16.305 5.1402 16.305 4.2002C16.305 2.9802 15.355 1.7002 13.705 1.7002C10.625 1.7002 8.78501 3.1702 8.38501 4.9602L10.715 7.2902C10.375 6.3902 10.305 6.0802 10.305 5.7002C10.305 4.5202 11.705 3.7002 13.705 3.7002C14.275 3.7002 14.305 4.1202 14.305 4.2002C14.305 4.4702 14.255 4.6302 13.955 4.8502C12.685 5.7502 12.125 6.7602 11.795 8.2402L11.775 8.3402L19.025 15.5902C19.265 15.6502 19.525 15.7002 19.805 15.7002C21.025 15.7002 22.305 14.7502 22.305 13.1002C22.305 9.6102 20.415 7.7002 18.305 7.7002ZM19.805 13.7002C19.535 13.7002 19.375 13.6502 19.155 13.3502C18.255 12.0802 17.245 11.5202 15.765 11.1902C15.735 10.9702 15.685 10.7702 15.615 10.5702C17.415 9.8202 17.795 9.7002 18.305 9.7002C19.485 9.7002 20.305 11.1002 20.305 13.1002C20.305 13.6702 19.885 13.7002 19.805 13.7002Z" fill="black"/>
<path d="M1.69501 3.9202L5.58501 7.81019C5.34501 7.7502 5.08501 7.7002 4.80501 7.7002C3.58501 7.7002 2.30501 8.6502 2.30501 10.3002C2.30501 13.7902 4.19501 15.7002 6.30501 15.7002C7.36501 15.7002 7.94501 15.4102 10.215 14.5102C10.405 14.6502 10.615 14.7802 10.835 14.8802C10.585 15.9102 10.225 16.4102 9.50501 16.9202C8.69501 17.4902 8.30501 18.2602 8.30501 19.2002C8.30501 20.4202 9.25501 21.7002 10.905 21.7002C13.985 21.7002 15.825 20.2302 16.225 18.4402L20.085 22.3002L21.495 20.8902L3.11501 2.5102L1.69501 3.9202ZM12.825 15.1602C12.855 15.1602 12.885 15.1402 12.915 15.1402L13.885 16.1102C14.235 17.0102 14.305 17.3202 14.305 17.7002C14.305 18.8802 12.905 19.7002 10.905 19.7002C10.335 19.7002 10.305 19.2802 10.305 19.2002C10.305 18.9302 10.355 18.7702 10.655 18.5502C11.935 17.6602 12.485 16.6402 12.825 15.1602ZM8.84501 12.2202C8.87501 12.4402 8.92501 12.6402 8.99501 12.8402C7.19501 13.5802 6.81501 13.7002 6.30501 13.7002C5.12501 13.7002 4.30501 12.3002 4.30501 10.3002C4.30501 9.7302 4.72501 9.7002 4.80501 9.7002C5.07501 9.7002 5.23501 9.7502 5.45501 10.0502C6.34501 11.3302 7.36501 11.8802 8.84501 12.2202Z" fill="black"/>
</svg>
