<svg width="24" height="24" viewBox="0 0 24 24" fill="none" xmlns="http://www.w3.org/2000/svg">
<path d="M8.80503 6C8.80503 4.29 10.195 2.9 11.905 2.9C13.615 2.9 15.005 4.29 15.005 6V8H10.345L12.345 10H17.905V15.56L19.905 17.56V10C19.905 8.9 19.005 8 17.905 8H16.905V6C16.905 3.24 14.665 1 11.905 1C9.58503 1 7.64503 2.59 7.08503 4.74L8.80503 6.46V6ZM4.31503 4.81L2.90503 6.22L4.94503 8.26C4.32503 8.6 3.90503 9.25 3.90503 10V20C3.90503 21.1 4.80503 22 5.90503 22H18.685L19.685 23L21.095 21.59L4.31503 4.81ZM5.90503 20V10H6.68503L16.685 20H5.90503Z" fill="black"/>
</svg>
