<svg width="24" height="24" viewBox="0 0 24 24" fill="none" xmlns="http://www.w3.org/2000/svg">
<path d="M21 13.1199H17.93C17.88 12.7299 17.81 12.3499 17.71 11.9799L20.29 10.4899L19.29 8.75988L16.92 10.1199C16.64 9.63988 16.3 9.20988 15.93 8.82988C16.03 8.26988 16.13 7.13988 15.35 5.93988L17 4.28988L15.59 2.87988L13.87 4.59988C12.19 3.70988 10.77 4.26988 10.14 4.59988L8.41 2.87988L7 4.28988L8.65 5.93988C7.87 7.13988 7.97 8.27988 8.07 8.82988C7.7 9.21988 7.36 9.64988 7.08 10.1199L4.71 8.74988L3.71 10.4799L6.29 11.9699C6.19 12.3399 6.12 12.7199 6.07 13.1099H3V15.1099H6.07C6.12 15.4999 6.19 15.8799 6.29 16.2499L3.71 17.7399L4.71 19.4699L7.08 18.1199C8.16 19.9299 9.96 21.1199 12 21.1199C14.04 21.1199 15.84 19.9299 16.92 18.1199L19.29 19.4899L20.29 17.7599L17.71 16.2699C17.81 15.8999 17.88 15.5199 17.93 15.1299H21V13.1199ZM12 6.11988C12.88 6.11988 13.62 6.68988 13.88 7.47988C13.29 7.24988 12.66 7.11988 12 7.11988C11.34 7.11988 10.71 7.24988 10.12 7.47988C10.38 6.68988 11.12 6.11988 12 6.11988ZM12 19.1199C9.79 19.1199 8 16.8799 8 14.1199C8 11.3599 9.79 9.11988 12 9.11988C14.21 9.11988 16 11.3599 16 14.1199C16 16.8799 14.21 19.1199 12 19.1199Z" fill="black"/>
<path d="M13 11.1199H11V17.1199H13V11.1199Z" fill="black"/>
</svg>
