<svg width="24" height="24" viewBox="0 0 24 24" fill="none" xmlns="http://www.w3.org/2000/svg">
<path d="M16.9998 18C17.552 18 17.9998 17.5523 17.9998 17C17.9998 16.4477 17.552 16 16.9998 16C16.4475 16 15.9998 16.4477 15.9998 17C15.9998 17.5523 16.4475 18 16.9998 18Z" fill="black"/>
<path d="M20.8598 14.97L19.9298 14.13C20.4098 10.68 17.0598 8.09 13.8798 9.31C13.2998 9.11 12.6598 9 11.9998 9C7.73976 9 6.34976 12.58 6.10976 13.85C4.88976 13.47 3.99976 12.35 3.99976 11C3.99976 9.34 5.33976 8 6.99976 8H9.49976C10.8798 8 11.9998 6.88 11.9998 5.5C11.9998 4.12 10.8798 3 9.49976 3H7.99976C7.44976 3 6.99976 3.45 6.99976 4C6.99976 4.55 7.44976 5 7.99976 5H9.49976C9.77976 5 9.99976 5.22 9.99976 5.5C9.99976 5.78 9.77976 6 9.49976 6H6.99976C4.23976 6 1.99976 8.24 1.99976 11C1.99976 13.44 3.75976 15.47 6.06976 15.91C6.50976 18.79 8.98976 21 11.9998 21H18.5298C21.6398 21 23.2298 17.11 20.8598 14.97ZM18.5298 19H11.9998C10.7898 19 9.65976 18.46 8.88976 17.52C8.10976 16.57 7.82976 15.36 8.08976 14.11C8.39976 12.63 9.59976 11.42 11.0798 11.1C11.2998 11.05 11.5298 11.04 11.7498 11.03C11.2798 11.74 10.9998 12.58 10.9998 13.5C10.9998 14.74 11.4998 15.87 12.3198 16.68L13.7298 15.27C13.2798 14.82 12.9998 14.19 12.9998 13.5C12.9998 12.08 14.1998 11 15.4998 11C16.8798 11 17.9998 12.12 17.9998 13.5C17.9998 13.96 17.8698 14.38 17.6498 14.75L19.5198 16.45C19.8298 16.73 19.9998 17.12 19.9998 17.54C19.9998 18.34 19.3398 19 18.5298 19Z" fill="black"/>
</svg>
