<svg width="24" height="24" viewBox="0 0 24 24" fill="none" xmlns="http://www.w3.org/2000/svg">
<path d="M15.4463 16.5204L12.4363 13.5104C12.3263 13.4004 12.1963 13.3804 12.1263 13.3804C12.0563 13.3804 11.9263 13.4004 11.8163 13.5104L8.79628 16.5304C8.45628 16.8704 7.92628 17.4204 6.15628 17.4204L9.86628 21.1204C11.0363 22.2904 12.9363 22.2904 14.1063 21.1204L17.8263 17.4104C16.9163 17.4104 16.1563 17.2304 15.4463 16.5204Z" fill="black"/>
<path d="M8.79628 7.47043L11.8163 10.4904C11.8963 10.5704 12.0163 10.6204 12.1263 10.6204C12.2363 10.6204 12.3563 10.5704 12.4363 10.4904L15.4263 7.50043C16.1363 6.76043 16.9463 6.59043 17.8563 6.59043L14.1363 2.88043C12.9663 1.71043 11.0663 1.71043 9.89628 2.88043L6.18628 6.58043C7.94628 6.58043 8.48628 7.16043 8.79628 7.47043Z" fill="black"/>
<path d="M21.1063 9.85043L18.8563 7.59043H17.5963C17.0563 7.59043 16.5163 7.81043 16.1463 8.20043L13.1463 11.2004C12.8663 11.4804 12.4963 11.6204 12.1263 11.6204C11.7663 11.6204 11.3863 11.4704 11.1063 11.2004L8.08628 8.17043C7.70628 7.79043 7.18628 7.57043 6.63628 7.57043H5.16628L2.87628 9.87043C1.70628 11.0404 1.70628 12.9404 2.87628 14.1104L5.16628 16.4104H6.64628C7.18628 16.4104 7.70628 16.1904 8.09628 15.8104L11.1163 12.7904C11.3963 12.5104 11.7663 12.3704 12.1363 12.3704C12.5063 12.3704 12.8763 12.5104 13.1563 12.7904L16.1663 15.8004C16.5463 16.1804 17.0663 16.4004 17.6163 16.4004H18.8763L21.1263 14.1404C22.2963 12.9604 22.2963 11.0404 21.1063 9.85043Z" fill="black"/>
</svg>
