<svg width="24" height="24" viewBox="0 0 24 24" fill="none" xmlns="http://www.w3.org/2000/svg">
<path d="M19.928 8.66781L16.328 10.3478L13.998 8.01781V6.61781L16.328 4.28781L19.928 5.96781C20.308 6.14781 20.748 5.97781 20.928 5.60781C21.108 5.22781 20.938 4.78781 20.568 4.60781L16.648 2.77781C16.268 2.59781 15.818 2.67781 15.518 2.97781L13.778 4.71781C13.598 4.47781 13.318 4.31781 12.998 4.31781C12.448 4.31781 11.998 4.76781 11.998 5.31781V6.31781H8.81805C8.39805 5.15781 7.29805 4.31781 5.99805 4.31781C4.33805 4.31781 2.99805 5.65781 2.99805 7.31781C2.99805 8.41781 3.59805 9.36781 4.47805 9.89781L7.07805 18.3178H5.99805C4.89805 18.3178 3.99805 19.2178 3.99805 20.3178V21.3178H16.998V20.3178C16.998 19.2178 16.098 18.3178 14.998 18.3178H13.378L8.40805 9.08781C8.57805 8.84781 8.71805 8.59781 8.81805 8.31781H11.998V9.31781C11.998 9.86781 12.448 10.3178 12.998 10.3178C13.318 10.3178 13.598 10.1578 13.778 9.91781L15.518 11.6578C15.818 11.9578 16.268 12.0378 16.648 11.8578L20.568 10.0278C20.948 9.84781 21.108 9.40781 20.928 9.02781C20.748 8.65781 20.308 8.48781 19.928 8.66781ZM5.99805 8.31781C5.44805 8.31781 4.99805 7.86781 4.99805 7.31781C4.99805 6.76781 5.44805 6.31781 5.99805 6.31781C6.54805 6.31781 6.99805 6.76781 6.99805 7.31781C6.99805 7.86781 6.54805 8.31781 5.99805 8.31781ZM11.108 18.3178H9.16805L6.70805 10.3178H6.80805L11.108 18.3178Z" fill="black"/>
</svg>
