<svg width="24" height="24" viewBox="0 0 24 24" fill="none" xmlns="http://www.w3.org/2000/svg">
<path d="M15.8198 7.22L14.8198 7.62C14.6098 7.46 14.3898 7.33 14.1498 7.23L13.9998 6.17C13.9798 6.07 13.8998 6 13.7998 6H12.1998C12.0998 6 12.0198 6.07 12.0098 6.17L11.8598 7.23C11.6198 7.33 11.3898 7.46 11.1898 7.62L10.1898 7.22C10.0998 7.19 9.98985 7.22 9.94985 7.31L9.14985 8.69C9.09985 8.78 9.11985 8.89 9.19985 8.95L10.0498 9.61C10.0198 9.73 9.99985 9.87 9.99985 10C9.99985 10.13 10.0098 10.26 10.0298 10.39L9.18985 11.05C9.10985 11.11 9.08985 11.22 9.13985 11.3L9.93985 12.69C9.98985 12.78 10.0898 12.81 10.1898 12.78L11.1798 12.38C11.3898 12.54 11.6098 12.67 11.8598 12.77L11.9998 13.83C12.0198 13.93 12.0998 14 12.1998 14H13.7998C13.8998 14 13.9798 13.93 13.9998 13.83L14.1498 12.77C14.3898 12.67 14.6198 12.54 14.8198 12.38L15.8098 12.78C15.8998 12.82 16.0098 12.78 16.0498 12.69L16.8498 11.3C16.8998 11.21 16.8798 11.11 16.7998 11.05L15.9698 10.39C15.9898 10.26 15.9998 10.13 15.9998 10C15.9998 9.86 15.9898 9.73 15.9698 9.61L16.8198 8.95C16.8998 8.89 16.9198 8.78 16.8698 8.69L16.0698 7.31C16.0198 7.22 15.9098 7.19 15.8198 7.22ZM12.9998 11.43C12.2098 11.43 11.5698 10.79 11.5698 10C11.5698 9.21 12.2098 8.57 12.9998 8.57C13.7898 8.57 14.4298 9.21 14.4298 10C14.4298 10.79 13.7898 11.43 12.9998 11.43Z" fill="black"/>
<path d="M19.9398 9.06C19.5098 5.79 16.7098 3.2 13.4098 3.01C13.2698 3 13.1398 3 12.9998 3C9.46985 3 6.56985 5.61 6.07985 9L4.14985 12.48C3.73985 13.14 4.21985 14 4.99985 14H5.99985V16C5.99985 17.1 6.89985 18 7.99985 18H8.99985V21H15.9998V16.32C18.6198 15.07 20.3498 12.24 19.9398 9.06ZM14.8898 14.63L13.9998 15.05V19H10.9998V16H7.99985V12H6.69985L8.02985 9.67C8.20985 7.06 10.3498 5 12.9998 5C15.7598 5 17.9998 7.24 17.9998 10C17.9998 12.09 16.7098 13.88 14.8898 14.63Z" fill="black"/>
</svg>
