<svg width="24" height="24" viewBox="0 0 24 24" fill="none" xmlns="http://www.w3.org/2000/svg">
<g clip-path="url(#clip0_2403_6357)">
<path d="M1.975 0.56543L0.565002 1.97543L4.955 6.36543L7.165 11.0254L5.815 13.4754C5.655 13.7554 5.565 14.0854 5.565 14.4354C5.565 15.5354 6.465 16.4354 7.565 16.4354H15.025L16.405 17.8154C15.905 18.1754 15.575 18.7654 15.575 19.4354C15.575 20.5354 16.465 21.4354 17.565 21.4354C18.235 21.4354 18.825 21.1054 19.185 20.5954L22.025 23.4354L23.435 22.0254L1.975 0.56543ZM7.565 14.4354L8.665 12.4354H11.025L13.025 14.4354H7.565ZM20.565 3.43543H7.685L9.685 5.43543H18.875L16.115 10.4354H14.675L16.615 12.3754C17.155 12.2354 17.605 11.8854 17.865 11.4054L21.445 4.91543C21.815 4.25543 21.325 3.43543 20.565 3.43543ZM7.565 17.4354C6.465 17.4354 5.575 18.3354 5.575 19.4354C5.575 20.5354 6.465 21.4354 7.565 21.4354C8.665 21.4354 9.565 20.5354 9.565 19.4354C9.565 18.3354 8.665 17.4354 7.565 17.4354Z" fill="black"/>
</g>
<defs>
<clipPath id="clip0_2403_6357">
<rect width="24" height="24" fill="white"/>
</clipPath>
</defs>
</svg>
