<svg width="24" height="24" viewBox="0 0 24 24" fill="none" xmlns="http://www.w3.org/2000/svg">
<path d="M9.59 13C10.14 13 10.59 13.45 10.59 14C10.59 14.55 10.14 15 9.59 15C9.04 15 8.59 14.55 8.59 14C8.59 13.45 9.04 13 9.59 13ZM9.59 11C7.93 11 6.59 12.34 6.59 14C6.59 15.66 7.93 17 9.59 17C11.25 17 12.59 15.66 12.59 14C12.59 12.34 11.25 11 9.59 11ZM18.09 9L19.18 6.59L21.59 5.5L19.18 4.41L18.09 2L17 4.41L14.59 5.5L17 6.59L18.09 9ZM20.87 12.72L20.09 11L19.31 12.72L17.59 13.5L19.31 14.28L20.09 16L20.87 14.28L22.59 13.5L20.87 12.72ZM15.84 14C15.84 13.88 15.84 13.75 15.83 13.63L17.77 12.16L15.27 7.83L13.03 8.77C12.83 8.64 12.61 8.51 12.39 8.4L12.09 6H7.09L6.79 8.41C6.57 8.52 6.36 8.65 6.15 8.78L3.91 7.83L1.41 12.16L3.35 13.63C3.34 13.75 3.34 13.88 3.34 14C3.34 14.12 3.34 14.25 3.35 14.37L1.41 15.84L3.91 20.17L6.15 19.23C6.35 19.36 6.57 19.49 6.79 19.6L7.09 22H12.09L12.39 19.59C12.61 19.48 12.82 19.36 13.03 19.22L15.27 20.16L17.77 15.83L15.83 14.36C15.84 14.25 15.84 14.12 15.84 14ZM14.42 17.64L12.69 16.91C12.13 17.51 11.39 17.95 10.56 18.14L10.32 20H8.86L8.63 18.14C7.8 17.95 7.06 17.51 6.5 16.91L4.77 17.64L4.04 16.37L5.53 15.24C5.41 14.85 5.35 14.44 5.35 14.01C5.35 13.58 5.41 13.17 5.53 12.78L4.04 11.65L4.77 10.38L6.5 11.11C7.06 10.51 7.8 10.07 8.63 9.88L8.86 8H10.33L10.56 9.86C11.39 10.05 12.13 10.49 12.69 11.09L14.42 10.36L15.15 11.63L13.66 12.76C13.78 13.15 13.84 13.56 13.84 13.99C13.84 14.42 13.78 14.83 13.66 15.22L15.15 16.35L14.42 17.64Z" fill="black"/>
</svg>
