<svg width="24" height="24" viewBox="0 0 24 24" fill="none" xmlns="http://www.w3.org/2000/svg">
<path d="M6.72997 10.56L7.78997 9.5L6.72997 8.44L7.78997 7.38L9.90997 9.5L7.78997 11.62L6.72997 10.56ZM3.90997 9C3.93997 9 3.95997 9.01 3.98997 9.01C5.17997 6.07 8.04997 4 11.41 4C13.6 4 15.57 4.88 17.02 6.3C17.17 5.7 17.47 5.01 17.83 4.34C16.09 2.88 13.85 2 11.4 2C6.51997 2 2.45997 5.51 1.58997 10.14C2.14997 9.44 2.99997 9 3.90997 9ZM20.41 10.5C19.99 10.5 19.59 10.41 19.22 10.28C19.34 10.83 19.41 11.41 19.41 12C19.41 16.42 15.83 20 11.41 20C8.04997 20 5.17997 17.93 3.98997 14.99C3.95997 14.99 3.93997 15 3.90997 15C3.38997 15 2.86997 14.86 2.40997 14.6C2.08997 14.42 1.81997 14.18 1.58997 13.9C2.47997 18.51 6.51997 22 11.39 22C16.93 22 21.41 17.52 21.41 12C21.41 11.45 21.35 10.91 21.27 10.38C20.99 10.45 20.71 10.5 20.41 10.5ZM20.41 3C20.41 3 18.41 5.9 18.41 7C18.41 8.1 19.31 9 20.41 9C21.51 9 22.41 8.1 22.41 7C22.41 5.9 20.41 3 20.41 3ZM15.03 7.38L12.91 9.5L15.03 11.62L16.09 10.56L15.03 9.5L16.09 8.44L15.03 7.38ZM7.96997 17C8.65997 15.81 9.93997 15 11.41 15C12.88 15 14.16 15.81 14.85 17H16.53C15.73 14.95 13.74 13.5 11.41 13.5C10.54 13.5 9.70996 13.7 8.97997 14.07L5.39997 12C5.39997 11.48 5.13997 10.98 4.65997 10.71C3.93997 10.3 3.02997 10.54 2.60997 11.26C2.19997 11.98 2.43997 12.89 3.15997 13.31C3.63997 13.59 4.20997 13.56 4.64997 13.31L7.61997 15.03C7.04997 15.56 6.58997 16.24 6.28997 17H7.96997Z" fill="black"/>
</svg>
