<svg width="24" height="24" viewBox="0 0 24 24" fill="none" xmlns="http://www.w3.org/2000/svg">
<g clip-path="url(#clip0_2403_6414)">
<path d="M20.93 3.33969V15.3397H19.59L21.5 17.2497C22.32 16.9997 22.93 16.2397 22.93 15.3397V3.33969C22.93 2.23969 22.03 1.33969 20.93 1.33969H5.58999L7.58999 3.33969H20.93ZM6.92999 11.3397H8.92999V13.3397H6.92999V11.3397ZM18.93 8.33969H12.59L14.59 10.3397H18.93V8.33969ZM18.93 5.33969H10.93V6.67969L11.59 7.33969H18.93V5.33969ZM2.33999 0.929688L0.929993 2.33969L2.93999 4.34969L2.92999 21.3397L6.92999 17.3397H15.93L21.66 23.0697L23.07 21.6597L2.33999 0.929688ZM6.09999 15.3397L4.92999 16.5097V6.33969L6.92999 8.33969V10.3397H8.92999L13.93 15.3397H6.09999Z" fill="black"/>
</g>
<defs>
<clipPath id="clip0_2403_6414">
<rect width="24" height="24" fill="white"/>
</clipPath>
</defs>
</svg>
