<svg width="24" height="24" viewBox="0 0 24 24" fill="none" xmlns="http://www.w3.org/2000/svg">
<path d="M21.5799 16.09L20.4899 8.43C20.2099 6.46 18.5199 5 16.5299 5H7.46994C5.47994 5 3.78994 6.46 3.50994 8.43L2.41994 16.09C2.19994 17.63 3.38994 19 4.93994 19C5.61994 19 6.25994 18.73 6.73994 18.25L8.99994 16H14.9999L17.2499 18.25C17.7299 18.73 18.3799 19 19.0499 19C20.6099 19 21.7999 17.63 21.5799 16.09ZM19.4799 16.81C19.3999 16.9 19.2699 17 19.0599 17C18.9099 17 18.7699 16.94 18.6699 16.84L15.8299 14H8.16994L5.32994 16.84C5.22994 16.94 5.08994 17 4.93994 17C4.72994 17 4.59994 16.9 4.51994 16.81C4.43994 16.72 4.35994 16.58 4.38994 16.37L5.47994 8.71C5.62994 7.74 6.47994 7 7.46994 7H16.5299C17.5199 7 18.3699 7.74 18.5099 8.72L19.5999 16.38C19.6299 16.58 19.5499 16.72 19.4799 16.81Z" fill="black"/>
<path d="M8.99994 8H7.99994V10H5.99994V11H7.99994V13H8.99994V11H10.9999V10H8.99994V8Z" fill="black"/>
<path d="M16.9999 13C17.5522 13 17.9999 12.5523 17.9999 12C17.9999 11.4477 17.5522 11 16.9999 11C16.4477 11 15.9999 11.4477 15.9999 12C15.9999 12.5523 16.4477 13 16.9999 13Z" fill="black"/>
<path d="M14.9999 10C15.5522 10 15.9999 9.55228 15.9999 9C15.9999 8.44772 15.5522 8 14.9999 8C14.4477 8 13.9999 8.44772 13.9999 9C13.9999 9.55228 14.4477 10 14.9999 10Z" fill="black"/>
</svg>
