<svg width="24" height="24" viewBox="0 0 24 24" fill="none" xmlns="http://www.w3.org/2000/svg">
<path d="M20.48 3.29512H7.31002L9.31002 5.29512H20.48V16.4651L22.24 18.2251C22.39 17.9451 22.48 17.6351 22.48 17.2951V5.29512C22.48 4.19512 21.58 3.29512 20.48 3.29512Z" fill="black"/>
<path d="M18.48 9.29512H13.31L15.31 11.2951H18.48V9.29512Z" fill="black"/>
<path d="M1.52002 3.16512L2.72002 4.36512C2.57002 4.64512 2.48002 4.95512 2.48002 5.29512V17.2951C2.48002 18.3951 3.38002 19.2951 4.48002 19.2951H17.65L20.61 22.2551L22.02 20.8451L2.93002 1.74512L1.52002 3.16512ZM4.48002 6.12512L7.65002 9.29512H6.48002V11.2951H8.48002V10.1251L11.65 13.2951H6.48002V15.2951H13.65L15.65 17.2951H4.48002V6.12512Z" fill="black"/>
</svg>
