<svg width="24" height="24" viewBox="0 0 24 24" fill="none" xmlns="http://www.w3.org/2000/svg">
<path d="M10.4599 5.67031V3.58031C9.79995 3.75031 9.16995 4.01031 8.57995 4.33031L10.0799 5.83031C10.2099 5.78031 10.3299 5.72031 10.4599 5.67031ZM20.4599 11.3203C20.4599 9.11031 19.5499 7.12031 18.0999 5.68031L20.4599 3.32031H14.4599V9.32031L16.6999 7.08031C17.7799 8.17031 18.4599 9.66031 18.4599 11.3203C18.4599 12.1703 18.2699 12.9703 17.9499 13.7003L19.4499 15.2003C20.0899 14.0603 20.4599 12.7303 20.4599 11.3203ZM4.72995 3.32031L3.31995 4.73031L5.67995 7.09031C4.90995 8.31031 4.45995 9.76031 4.45995 11.3203C4.45995 13.5303 5.36995 15.5203 6.81995 16.9603L4.45995 19.3203H10.4599V13.3203L8.21995 15.5603C7.13995 14.4703 6.45995 12.9803 6.45995 11.3203C6.45995 10.3203 6.70995 9.38031 7.13995 8.55031L15.2199 16.6303C14.9699 16.7603 14.7199 16.8703 14.4599 16.9703V19.0603C15.2599 18.8503 16.0099 18.5203 16.6899 18.1003L19.2699 20.6803L20.6799 19.2703L4.72995 3.32031Z" fill="black"/>
</svg>
