<svg width="24" height="24" viewBox="0 0 24 24" fill="none" xmlns="http://www.w3.org/2000/svg">
<g clip-path="url(#clip0_2403_5253)">
<path d="M-0.0100098 7.71453V9.39453L2.98999 8.39453V17.9945H4.98999V5.99453H4.73999L-0.0100098 7.71453ZM23.77 14.3645C23.63 14.0845 23.42 13.8345 23.14 13.6245C22.86 13.4145 22.53 13.2345 22.13 13.0945C21.73 12.9545 21.28 12.8245 20.78 12.7145C20.43 12.6445 20.14 12.5645 19.91 12.4845C19.68 12.4045 19.5 12.3245 19.36 12.2345C19.22 12.1445 19.13 12.0445 19.08 11.9345C19.03 11.8245 19 11.6945 19 11.5445C19 11.4045 19.03 11.2645 19.09 11.1345C19.15 11.0045 19.24 10.8845 19.36 10.7945C19.48 10.6945 19.63 10.6145 19.81 10.5545C19.99 10.4945 20.21 10.4645 20.45 10.4645C20.7 10.4645 20.92 10.5045 21.11 10.5745C21.3 10.6445 21.46 10.7445 21.59 10.8645C21.72 10.9845 21.81 11.1245 21.88 11.2845C21.94 11.4445 21.98 11.6045 21.98 11.7745H23.93C23.93 11.3845 23.85 11.0245 23.69 10.6845C23.53 10.3445 23.3 10.0545 23 9.80453C22.7 9.55453 22.34 9.36453 21.91 9.21453C21.48 9.06453 20.99 8.99453 20.45 8.99453C19.94 8.99453 19.47 9.06453 19.06 9.20453C18.65 9.34453 18.29 9.53453 18 9.77453C17.71 10.0145 17.49 10.2945 17.33 10.6145C17.17 10.9345 17.1 11.2645 17.1 11.6245C17.1 11.9845 17.18 12.3145 17.33 12.5845C17.48 12.8645 17.69 13.1045 17.97 13.3145C18.24 13.5245 18.57 13.6945 18.95 13.8445C19.33 13.9845 19.76 14.1045 20.22 14.2045C20.61 14.2845 20.93 14.3745 21.17 14.4645C21.41 14.5545 21.6 14.6545 21.74 14.7545C21.87 14.8545 21.96 14.9745 22.01 15.0945C22.06 15.2145 22.08 15.3445 22.08 15.4845C22.08 15.8045 21.95 16.0545 21.68 16.2545C21.41 16.4545 21.02 16.5445 20.51 16.5445C20.29 16.5445 20.08 16.5245 19.87 16.4645C19.66 16.4145 19.47 16.3345 19.31 16.2245C19.14 16.1145 19.01 15.9645 18.9 15.7845C18.79 15.6045 18.73 15.3745 18.72 15.1145H16.83C16.83 15.4745 16.91 15.8245 17.07 16.1645C17.23 16.5045 17.46 16.8145 17.77 17.0945C18.08 17.3645 18.46 17.5845 18.92 17.7545C19.38 17.9245 19.9 18.0045 20.5 18.0045C21.03 18.0045 21.51 17.9445 21.94 17.8145C22.37 17.6845 22.74 17.5045 23.05 17.2745C23.36 17.0445 23.59 16.7645 23.76 16.4445C23.93 16.1245 24.01 15.7745 24.01 15.3845C23.99 14.9845 23.92 14.6445 23.77 14.3645ZM13.81 7.04453C13.47 6.64453 13.06 6.34453 12.58 6.16453C12.11 5.98453 11.57 5.89453 10.99 5.89453C10.41 5.89453 9.87999 5.98453 9.39999 6.16453C8.91999 6.34453 8.50999 6.63453 8.16999 7.04453C7.82999 7.45453 7.56999 7.97453 7.37999 8.63453C7.19999 9.28453 7.09999 10.0845 7.09999 11.0245V12.9445C7.09999 13.8845 7.18999 14.6845 7.37999 15.3345C7.56999 15.9945 7.82999 16.5245 8.17999 16.9345C8.51999 17.3445 8.92999 17.6445 9.40999 17.8245C9.88999 18.0045 10.42 18.1045 11 18.1045C11.59 18.1045 12.12 18.0145 12.59 17.8245C13.07 17.6445 13.47 17.3445 13.81 16.9345C14.15 16.5245 14.41 15.9945 14.59 15.3345C14.77 14.6845 14.87 13.8845 14.87 12.9445V11.0245C14.87 10.0845 14.78 9.28453 14.59 8.63453C14.41 7.97453 14.15 7.44453 13.81 7.04453ZM12.89 13.2145C12.89 13.8145 12.85 14.3245 12.77 14.7445C12.69 15.1645 12.57 15.5045 12.41 15.7645C12.25 16.0245 12.05 16.2145 11.82 16.3345C11.59 16.4545 11.31 16.5145 11 16.5145C10.7 16.5145 10.42 16.4545 10.18 16.3345C9.93999 16.2145 9.73999 16.0245 9.57999 15.7645C9.41999 15.5045 9.28999 15.1645 9.19999 14.7445C9.10999 14.3245 9.06999 13.8145 9.06999 13.2145V10.7145C9.06999 10.1145 9.10999 9.60453 9.19999 9.19453C9.28999 8.78453 9.40999 8.45453 9.57999 8.19453C9.73999 7.94453 9.93999 7.76453 10.18 7.64453C10.42 7.53453 10.69 7.47453 10.99 7.47453C11.3 7.47453 11.57 7.53453 11.8 7.64453C12.04 7.75453 12.24 7.93453 12.4 8.19453C12.56 8.44453 12.69 8.77453 12.77 9.18453C12.85 9.59453 12.9 10.1045 12.9 10.7045V13.2145H12.89Z" fill="black"/>
</g>
<defs>
<clipPath id="clip0_2403_5253">
<rect width="24" height="24" fill="white"/>
</clipPath>
</defs>
</svg>
