<svg width="24" height="24" viewBox="0 0 24 24" fill="none" xmlns="http://www.w3.org/2000/svg">
<path d="M10.2501 2.75H4.25012V4.75H10.2501V2.75Z" fill="black"/>
<path d="M6.25012 6.75H1.25012V8.75H6.25012V6.75Z" fill="black"/>
<path d="M8.25012 18.75H3.25012V20.75H8.25012V18.75Z" fill="black"/>
<path d="M22.4601 18.36L20.1801 14.26C19.9101 13.78 19.4501 13.43 18.9201 13.29L16.2301 12.62C16.2101 12.15 16.0901 11.7 15.8601 11.29L19.8201 4.7C20.4701 3.62 20.1201 2.22 19.0401 1.57C18.6801 1.35 18.2701 1.25 17.8701 1.25C17.3101 1.25 16.7501 1.46 16.3101 1.87L12.8801 5.08C12.4801 5.45 12.2501 5.98 12.2501 6.53V9.93C11.7801 10.1 11.3601 10.38 11.0201 10.75H3.53012C2.27012 10.75 1.25012 11.77 1.25012 13.03C1.25012 14.05 1.92012 14.94 2.90012 15.22L7.41012 16.51C7.59012 16.56 7.78012 16.59 7.96012 16.59C8.32012 16.59 8.68012 16.49 8.99012 16.3L11.2301 14.96C11.5201 15.22 11.8601 15.43 12.2501 15.57V20.75C11.1501 20.75 10.2501 21.65 10.2501 22.75H16.2501C16.2501 21.65 15.3501 20.75 14.2501 20.75V16.47L18.8601 21.08C19.3101 21.53 19.8901 21.75 20.4701 21.75C21.0501 21.75 21.6401 21.53 22.0801 21.08C22.8001 20.36 22.9601 19.25 22.4601 18.36ZM7.97012 14.59L3.45012 13.3C3.33012 13.27 3.25012 13.15 3.25012 13.03C3.25012 12.88 3.38012 12.75 3.53012 12.75H10.2601C10.2601 12.9 10.2701 13.05 10.2901 13.19L7.97012 14.59ZM13.2501 13.75C12.7001 13.75 12.2501 13.3 12.2501 12.75C12.2501 12.2 12.7001 11.75 13.2501 11.75C13.8001 11.75 14.2501 12.2 14.2501 12.75C14.2501 13.3 13.8001 13.75 13.2501 13.75ZM14.2501 9.89V6.53L17.6801 3.32C17.7301 3.27 17.8701 3.2 18.0201 3.28C18.1501 3.36 18.2001 3.53 18.1201 3.66L14.3801 9.9L14.2501 9.89ZM20.6701 19.67C20.6201 19.72 20.4301 19.83 20.2701 19.67L15.4201 14.82C15.5001 14.73 15.5801 14.64 15.6601 14.54L18.4401 15.23L20.7201 19.33C20.7801 19.44 20.7601 19.58 20.6701 19.67Z" fill="black"/>
</svg>
